<?xml version="1.0" encoding="utf-8"?>
<!-- Generator: Adobe Illustrator 16.0.0, SVG Export Plug-In . SVG Version: 6.00 Build 0)  -->
<!DOCTYPE svg PUBLIC "-//W3C//DTD SVG 1.1//EN" "http://www.w3.org/Graphics/SVG/1.1/DTD/svg11.dtd">
<svg version="1.1" id="Layer_1" xmlns="http://www.w3.org/2000/svg" xmlns:xlink="http://www.w3.org/1999/xlink" x="0px" y="0px"
	 width="590.863px" height="595.788px" viewBox="0 0 590.863 595.788" enable-background="new 0 0 590.863 595.788"
	 xml:space="preserve">
<path fill="#2B3B47" d="M112.711,413.511c-0.678,0.67-1.343,1.327-2.023,2c-2.947,2.885-5.836,5.875-8.783,8.828
	c-2.942,2.96-5.881,5.944-8.783,8.968c-2.911,3.014-5.823,6.025-8.722,9.028c-2.868,3.033-5.724,6.057-8.557,9.054
	c-5.617,6.049-11.112,12.031-16.34,17.91c-10.473,11.746-19.967,22.984-27.896,32.832c-3.968,4.916-7.535,9.494-10.67,13.581
	c-3.12,4.099-5.801,7.711-7.974,10.727c-4.336,6.03-6.678,9.612-6.678,9.612c-8.117,12.454-8.647,29.065,0.025,42.292
	C18,596.176,41.932,601.154,59.764,589.465c0,0,3.579-2.348,9.606-6.694c3.008-2.177,6.619-4.859,10.715-7.984
	c4.082-3.138,8.658-6.711,13.57-10.687c9.835-7.941,21.063-17.45,32.797-27.937c5.875-5.233,11.849-10.739,17.891-16.362
	c2.996-2.836,6.015-5.696,9.045-8.565c2.998-2.905,6.007-5.82,9.017-8.733c3.019-2.907,6-5.85,8.956-8.797
	c2.953-2.946,5.938-5.84,8.819-8.793c0.671-0.681,1.328-1.346,1.997-2.024C157.342,490.369,105.265,438.355,112.711,413.511z"/>
<path fill="#4E5D66" d="M145.529,378.188l-29.199,29.235c-1.753,1.756-2.936,3.808-3.619,6.088
	c-7.446,24.845,44.631,76.858,69.465,69.377c2.278-0.686,4.328-1.87,6.081-3.625l30.167-30.203
	C189.431,430.815,164.561,406.624,145.529,378.188z"/>
<path fill="#4E5D66" d="M519.337,155.895c-1.421-2.77-2.905-5.5-4.454-8.19c-4.163-7.229-8.781-14.162-13.815-20.761
	c-35.239-46.192-90.874-75.984-153.456-75.946c-66.125,0.04-124.437,33.379-159.123,84.141c-0.449,0.658-0.897,1.317-1.338,1.981
	c-3.168,4.762-6.136,9.671-8.879,14.72c-4.007,7.372-7.547,15.034-10.58,22.947c-1.211,3.159-2.34,6.359-3.387,9.596
	c-0.85,2.626-1.647,5.277-2.385,7.951c-0.73,2.645-1.417,5.309-2.036,7.998c-0.426,1.852-0.817,3.716-1.189,5.588
	c-0.514,2.583-0.978,5.184-1.387,7.803c-0.54,3.449-0.996,6.926-1.35,10.434c-0.327,3.24-0.573,6.504-0.738,9.789
	c-0.164,3.286-0.247,6.592-0.245,9.919c0.064,106.454,86.414,192.701,192.869,192.637c106.453-0.063,192.699-86.414,192.635-192.867
	C540.458,212.029,532.834,182.207,519.337,155.895z"/>
<path fill="#FFC033" d="M245.311,253.487c0.292,0.188,9.795,6.343,10.058,6.574c4.404,3.628,10.716,3.246,14.676-0.842l12.539-12.94
	c6.675-6.887,15.843-10.523,25.311-9.923c9.392,0.599,18.127,5.282,24.004,12.919l9.132,11.977c2.037,2.674,4.97,4.115,7.974,4.306
	c3.004-0.194,5.935-1.639,7.969-4.315l9.118-11.988c5.868-7.644,14.598-12.337,23.988-12.949c9.468-0.61,18.641,3.016,25.32,9.895
	l12.559,12.926c3.964,4.083,10.274,4.456,14.673,0.824c0.266-0.232,9.761-6.399,10.054-6.587l16.576-10.749
	c1.498-0.81,2.691-1.281,4.104-1.309c-3.921-51.407-37.428-95.737-84.943-112.012c0.562,2.756,0.861,5.611,0.863,8.537
	c0.014,22.938-18.082,41.612-40.332,41.625s-40.369-18.638-40.383-41.576c-0.002-2.928,0.295-5.786,0.854-8.545
	c-47.499,16.33-80.954,60.708-84.813,112.121c1.414,0.025,2.609,0.495,4.108,1.303L245.311,253.487z"/>
<path fill="#F9A926" d="M381.061,127.02l-32.139,0.02l0.091,150.363l22.968-0.014l10.705-14.076
	c1.979-2.647,4.839-4.162,7.994-4.315c3.229-0.229,6.164,0.904,8.442,3.248l12.554,12.925c11.676,12.021,30.02,13.297,43.076,3.228
	l16.292-0.009C484.959,209.521,443.928,144.197,381.061,127.02z"/>
<path fill="#43BFBF" d="M409.948,330.686l-17.441,113.466l-22.247,0.014l52.534-0.032c15.687-0.009,29.294-11.523,32.359-27.381
	l16.843-87.083c-2.976,0.639-6.052,0.982-9.197,0.984L409.948,330.686z"/>
<path fill="#36D9D9" d="M235.29,330.791c-3.146,0.002-6.221-0.338-9.197-0.973l16.948,87.059
	c3.081,15.856,16.703,27.354,32.391,27.346l30.286-0.018L288.14,330.759L235.29,330.791z"/>
<polygon fill="#45E6E6" points="349.045,330.723 349.045,330.723 288.14,330.759 305.718,444.205 305.718,444.205 327.967,444.191 
	370.26,444.166 349.113,444.178 "/>
<polygon fill="#36D9D9" points="409.948,330.686 349.045,330.723 349.045,330.723 349.113,444.178 370.26,444.166 392.507,444.152 
	"/>
<path fill="#F26D76" d="M348.953,179.455l-0.049-83.2c-19.411,0.011-35.656,14.224-39.479,33.079
	c-0.56,2.759-0.856,5.617-0.854,8.545C308.584,160.817,326.703,179.468,348.953,179.455z"/>
<path fill="#E65C64" d="M348.953,179.455c22.25-0.013,40.346-18.687,40.332-41.625c-0.002-2.926-0.302-5.781-0.863-8.537
	c-3.843-18.854-20.105-33.05-39.518-33.038L348.953,179.455z"/>
<path fill="#F26D76" d="M288.14,330.759l60.905-0.037h-0.002l-0.039-65.165c-3.004-0.19-5.937-1.632-7.974-4.306l-9.132-11.977
	c-5.877-7.637-14.612-12.32-24.004-12.919c-9.468-0.601-18.636,3.036-25.311,9.923l-12.539,12.94
	c-3.96,4.088-10.271,4.47-14.676,0.842c-0.263-0.231-9.766-6.386-10.058-6.574l-16.59-10.729c-1.499-0.808-2.694-1.278-4.108-1.303
	c-1.873-0.033-4.131,0.717-7.998,2.52c-15.467,7.105-26.298,23.292-26.095,41.953c0.237,21.75,15.606,39.627,35.574,43.89
	c2.976,0.635,6.051,0.975,9.197,0.973L288.14,330.759z"/>
<path fill="#E65C64" d="M507.517,285.737c0.179-18.662-10.671-34.836-26.148-41.924c-3.871-1.798-6.13-2.545-8.003-2.509
	c-1.413,0.027-2.606,0.499-4.104,1.309l-16.576,10.749c-0.293,0.188-9.788,6.354-10.054,6.587
	c-4.398,3.632-10.709,3.259-14.673-0.824l-12.559-12.926c-6.68-6.879-15.853-10.505-25.32-9.895
	c-9.391,0.612-18.12,5.306-23.988,12.949l-9.118,11.988c-2.034,2.677-4.965,4.121-7.969,4.315l0.039,65.165h0.002l0,0l0,0
	l60.903-0.037l52.851-0.032c3.146-0.002,6.222-0.345,9.197-0.984C491.958,325.383,507.305,307.49,507.517,285.737z"/>
<g>
	<g>
		<path fill="#E6E9ED" d="M509.482,110.943c-2.834-15.372-16.793-25.67-31.188-23.017c-4.958,0.913-9.321,3.237-12.79,6.535
			l-70.039,66.259l-37.886,6.983c0.645,1.171,1.128,2.464,1.386,3.864l6.805,36.926c49.609-13.741,158.83,0.329,161.826,0.719
			L509.482,110.943z"/>
	</g>
</g>
<g>
	<g>
		<g>
			<g>
				<g>
					<path fill="#9EE04D" d="M528.531,214.292l-0.936-5.078c-2.996-0.391-112.217-14.46-161.826-0.719l0.52,2.818
						c0.257,1.394,0.267,2.77,0.083,4.09l37.882-6.984l89.064,36.951c4.414,1.833,9.322,2.459,14.279,1.545
						C521.99,244.261,531.361,229.652,528.531,214.292z"/>
				</g>
			</g>
		</g>
	</g>
</g>
<text transform="matrix(-0.2063 -1.1125 0.9832 -0.1824 485.4902 191.4141)" fill="#4E5D66" font-family="'PoorRichard-Regular'" font-size="96.2206">?</text>
<path fill="#CCD1D9" d="M366.289,211.313l-0.52-2.818l-6.805-36.926c-0.258-1.4-0.741-2.693-1.386-3.864
	c-2.39-4.344-7.124-6.898-11.981-6.001c-6.171,1.136-10.189,7.39-8.975,13.982l7.326,39.743c1.212,6.579,7.199,11.003,13.369,9.867
	c4.861-0.896,8.373-4.983,9.054-9.893C366.556,214.083,366.546,212.707,366.289,211.313z"/>
<path fill="#9EE04D" d="M320.252,283.283c0,17.444,12.886,31.587,28.781,31.587c0-22.804,0-91.34,0-91.34
	S320.251,258.554,320.252,283.283z"/>
<path fill="#88BA42" d="M349.033,223.53c0,0,0,68.537,0,91.34c15.894,0,28.78-14.143,28.78-31.587
	C377.813,258.555,349.033,223.53,349.033,223.53z"/>
<path fill="#2B3B47" d="M347.58,0C213.299,0.081,104.508,109.003,104.589,243.281c0.03,49.923,15.113,96.315,40.94,134.906
	c19.031,28.437,43.902,52.628,72.895,70.872c37.495,23.593,81.875,37.241,129.449,37.213
	c134.279-0.081,243.07-109.001,242.99-243.283C590.782,108.71,481.858-0.081,347.58,0z M347.84,432.487
	c-104.576,0.063-189.402-84.662-189.465-189.237c-0.002-3.268,0.079-6.517,0.241-9.744c0.162-3.227,0.404-6.433,0.725-9.616
	c0.348-3.445,0.796-6.861,1.326-10.25c0.402-2.573,0.858-5.128,1.363-7.666c0.366-1.838,0.75-3.67,1.168-5.489
	c0.608-2.642,1.282-5.258,2-7.857c0.725-2.627,1.508-5.23,2.343-7.81c1.029-3.18,2.138-6.323,3.327-9.427
	c2.979-7.773,6.457-15.301,10.393-22.542c2.695-4.959,5.61-9.781,8.723-14.46c0.434-0.652,0.874-1.299,1.315-1.946
	c34.074-49.867,91.357-82.618,156.314-82.657c61.478-0.037,116.131,29.23,150.748,74.607c4.945,6.482,9.482,13.293,13.571,20.395
	c1.521,2.643,2.98,5.325,4.376,8.046c13.259,25.848,20.748,55.144,20.767,86.189C537.139,347.599,452.414,432.425,347.84,432.487z"
	/>
</svg>
